<mxfile host="app.diagrams.net" agent="Mozilla/5.0 (Macintosh; Intel Mac OS X 10_15_7) AppleWebKit/537.36 (KHTML, like Gecko) Chrome/127.0.0.0 Safari/537.36" version="24.7.7">
  <diagram name="Page-1" id="a-n8mXWm1lenAZUnklgW">
    <mxGraphModel dx="876" dy="1093" grid="1" gridSize="10" guides="1" tooltips="1" connect="1" arrows="1" fold="1" page="1" pageScale="1" pageWidth="827" pageHeight="1169" math="0" shadow="0">
      <root>
        <mxCell id="0" />
        <mxCell id="1" parent="0" />
        <mxCell id="ZxOYCtA8LWhduBdTKurD-3" value="" style="rounded=1;whiteSpace=wrap;html=1;" vertex="1" parent="1">
          <mxGeometry x="140" y="150" width="534" height="590" as="geometry" />
        </mxCell>
        <mxCell id="ZxOYCtA8LWhduBdTKurD-24" style="edgeStyle=orthogonalEdgeStyle;rounded=0;orthogonalLoop=1;jettySize=auto;html=1;entryX=0;entryY=0.5;entryDx=0;entryDy=0;" edge="1" parent="1" source="ZxOYCtA8LWhduBdTKurD-1" target="ZxOYCtA8LWhduBdTKurD-6">
          <mxGeometry relative="1" as="geometry">
            <Array as="points">
              <mxPoint x="180" y="447" />
              <mxPoint x="180" y="315" />
            </Array>
          </mxGeometry>
        </mxCell>
        <mxCell id="ZxOYCtA8LWhduBdTKurD-25" style="edgeStyle=orthogonalEdgeStyle;rounded=0;orthogonalLoop=1;jettySize=auto;html=1;entryX=0;entryY=0.5;entryDx=0;entryDy=0;" edge="1" parent="1" source="ZxOYCtA8LWhduBdTKurD-1" target="ZxOYCtA8LWhduBdTKurD-10">
          <mxGeometry relative="1" as="geometry">
            <Array as="points">
              <mxPoint x="180" y="447" />
              <mxPoint x="180" y="372" />
            </Array>
          </mxGeometry>
        </mxCell>
        <mxCell id="ZxOYCtA8LWhduBdTKurD-26" style="edgeStyle=orthogonalEdgeStyle;rounded=0;orthogonalLoop=1;jettySize=auto;html=1;" edge="1" parent="1" source="ZxOYCtA8LWhduBdTKurD-1" target="ZxOYCtA8LWhduBdTKurD-9">
          <mxGeometry relative="1" as="geometry">
            <Array as="points">
              <mxPoint x="180" y="447" />
              <mxPoint x="180" y="430" />
            </Array>
          </mxGeometry>
        </mxCell>
        <mxCell id="ZxOYCtA8LWhduBdTKurD-27" style="edgeStyle=orthogonalEdgeStyle;rounded=0;orthogonalLoop=1;jettySize=auto;html=1;entryX=0;entryY=0.5;entryDx=0;entryDy=0;" edge="1" parent="1" source="ZxOYCtA8LWhduBdTKurD-1" target="ZxOYCtA8LWhduBdTKurD-11">
          <mxGeometry relative="1" as="geometry">
            <Array as="points">
              <mxPoint x="180" y="447" />
              <mxPoint x="180" y="490" />
            </Array>
          </mxGeometry>
        </mxCell>
        <mxCell id="ZxOYCtA8LWhduBdTKurD-28" style="edgeStyle=orthogonalEdgeStyle;rounded=0;orthogonalLoop=1;jettySize=auto;html=1;entryX=0;entryY=0.5;entryDx=0;entryDy=0;" edge="1" parent="1" source="ZxOYCtA8LWhduBdTKurD-1" target="ZxOYCtA8LWhduBdTKurD-7">
          <mxGeometry relative="1" as="geometry">
            <Array as="points">
              <mxPoint x="180" y="447" />
              <mxPoint x="180" y="550" />
            </Array>
          </mxGeometry>
        </mxCell>
        <mxCell id="ZxOYCtA8LWhduBdTKurD-29" style="edgeStyle=orthogonalEdgeStyle;rounded=0;orthogonalLoop=1;jettySize=auto;html=1;entryX=0;entryY=0.5;entryDx=0;entryDy=0;" edge="1" parent="1" source="ZxOYCtA8LWhduBdTKurD-1" target="ZxOYCtA8LWhduBdTKurD-12">
          <mxGeometry relative="1" as="geometry">
            <Array as="points">
              <mxPoint x="180" y="447" />
              <mxPoint x="180" y="610" />
            </Array>
          </mxGeometry>
        </mxCell>
        <mxCell id="ZxOYCtA8LWhduBdTKurD-30" style="edgeStyle=orthogonalEdgeStyle;rounded=0;orthogonalLoop=1;jettySize=auto;html=1;entryX=0;entryY=0.5;entryDx=0;entryDy=0;" edge="1" parent="1" source="ZxOYCtA8LWhduBdTKurD-1" target="ZxOYCtA8LWhduBdTKurD-13">
          <mxGeometry relative="1" as="geometry">
            <Array as="points">
              <mxPoint x="180" y="447" />
              <mxPoint x="180" y="670" />
            </Array>
          </mxGeometry>
        </mxCell>
        <mxCell id="ZxOYCtA8LWhduBdTKurD-1" value="User" style="shape=umlActor;verticalLabelPosition=bottom;verticalAlign=top;html=1;outlineConnect=0;" vertex="1" parent="1">
          <mxGeometry x="30" y="392" width="70" height="110" as="geometry" />
        </mxCell>
        <mxCell id="ZxOYCtA8LWhduBdTKurD-5" value="Register" style="ellipse;whiteSpace=wrap;html=1;" vertex="1" parent="1">
          <mxGeometry x="251" y="240" width="110" height="40" as="geometry" />
        </mxCell>
        <mxCell id="ZxOYCtA8LWhduBdTKurD-6" value="Login" style="ellipse;whiteSpace=wrap;html=1;" vertex="1" parent="1">
          <mxGeometry x="251" y="295" width="110" height="40" as="geometry" />
        </mxCell>
        <mxCell id="ZxOYCtA8LWhduBdTKurD-7" value="View Movie List" style="ellipse;whiteSpace=wrap;html=1;" vertex="1" parent="1">
          <mxGeometry x="251" y="530" width="110" height="40" as="geometry" />
        </mxCell>
        <mxCell id="ZxOYCtA8LWhduBdTKurD-9" value="Search Movie" style="ellipse;whiteSpace=wrap;html=1;" vertex="1" parent="1">
          <mxGeometry x="251" y="410" width="110" height="40" as="geometry" />
        </mxCell>
        <mxCell id="ZxOYCtA8LWhduBdTKurD-10" value="Book Movie Ticket" style="ellipse;whiteSpace=wrap;html=1;" vertex="1" parent="1">
          <mxGeometry x="251" y="352" width="110" height="40" as="geometry" />
        </mxCell>
        <mxCell id="ZxOYCtA8LWhduBdTKurD-11" value="Making Payment" style="ellipse;whiteSpace=wrap;html=1;" vertex="1" parent="1">
          <mxGeometry x="251" y="470" width="110" height="40" as="geometry" />
        </mxCell>
        <mxCell id="ZxOYCtA8LWhduBdTKurD-12" value="Modify Booking&lt;span style=&quot;color: rgba(0, 0, 0, 0); font-family: monospace; font-size: 0px; text-align: start; text-wrap: nowrap;&quot;&gt;%3CmxGraphModel%3E%3Croot%3E%3CmxCell%20id%3D%220%22%2F%3E%3CmxCell%20id%3D%221%22%20parent%3D%220%22%2F%3E%3CmxCell%20id%3D%222%22%20value%3D%22Making%20Payment%22%20style%3D%22ellipse%3BwhiteSpace%3Dwrap%3Bhtml%3D1%3B%22%20vertex%3D%221%22%20parent%3D%221%22%3E%3CmxGeometry%20x%3D%22220%22%20y%3D%22530%22%20width%3D%22110%22%20height%3D%2240%22%20as%3D%22geometry%22%2F%3E%3C%2FmxCell%3E%3C%2Froot%3E%3C%2FmxGraphModel%3E&lt;/span&gt;" style="ellipse;whiteSpace=wrap;html=1;" vertex="1" parent="1">
          <mxGeometry x="251" y="590" width="110" height="40" as="geometry" />
        </mxCell>
        <mxCell id="ZxOYCtA8LWhduBdTKurD-13" value="Cancel Booking" style="ellipse;whiteSpace=wrap;html=1;" vertex="1" parent="1">
          <mxGeometry x="251" y="650" width="110" height="40" as="geometry" />
        </mxCell>
        <mxCell id="ZxOYCtA8LWhduBdTKurD-14" value="Adding Movie" style="ellipse;whiteSpace=wrap;html=1;" vertex="1" parent="1">
          <mxGeometry x="441" y="240" width="110" height="40" as="geometry" />
        </mxCell>
        <mxCell id="ZxOYCtA8LWhduBdTKurD-15" value="Delete Movie" style="ellipse;whiteSpace=wrap;html=1;" vertex="1" parent="1">
          <mxGeometry x="441" y="295" width="110" height="40" as="geometry" />
        </mxCell>
        <mxCell id="ZxOYCtA8LWhduBdTKurD-16" value="Update Movie" style="ellipse;whiteSpace=wrap;html=1;" vertex="1" parent="1">
          <mxGeometry x="441" y="352" width="110" height="40" as="geometry" />
        </mxCell>
        <mxCell id="ZxOYCtA8LWhduBdTKurD-18" value="View Booking List" style="ellipse;whiteSpace=wrap;html=1;" vertex="1" parent="1">
          <mxGeometry x="441" y="410" width="110" height="40" as="geometry" />
        </mxCell>
        <mxCell id="ZxOYCtA8LWhduBdTKurD-31" style="edgeStyle=orthogonalEdgeStyle;rounded=0;orthogonalLoop=1;jettySize=auto;html=1;entryX=1;entryY=0.5;entryDx=0;entryDy=0;" edge="1" parent="1" source="ZxOYCtA8LWhduBdTKurD-19" target="ZxOYCtA8LWhduBdTKurD-14">
          <mxGeometry relative="1" as="geometry">
            <Array as="points">
              <mxPoint x="630" y="447" />
              <mxPoint x="630" y="260" />
            </Array>
          </mxGeometry>
        </mxCell>
        <mxCell id="ZxOYCtA8LWhduBdTKurD-32" style="edgeStyle=orthogonalEdgeStyle;rounded=0;orthogonalLoop=1;jettySize=auto;html=1;entryX=1;entryY=0.5;entryDx=0;entryDy=0;" edge="1" parent="1" source="ZxOYCtA8LWhduBdTKurD-19" target="ZxOYCtA8LWhduBdTKurD-15">
          <mxGeometry relative="1" as="geometry">
            <Array as="points">
              <mxPoint x="630" y="447" />
              <mxPoint x="630" y="315" />
            </Array>
          </mxGeometry>
        </mxCell>
        <mxCell id="ZxOYCtA8LWhduBdTKurD-33" style="edgeStyle=orthogonalEdgeStyle;rounded=0;orthogonalLoop=1;jettySize=auto;html=1;" edge="1" parent="1" source="ZxOYCtA8LWhduBdTKurD-19" target="ZxOYCtA8LWhduBdTKurD-16">
          <mxGeometry relative="1" as="geometry">
            <Array as="points">
              <mxPoint x="630" y="447" />
              <mxPoint x="630" y="372" />
            </Array>
          </mxGeometry>
        </mxCell>
        <mxCell id="ZxOYCtA8LWhduBdTKurD-34" style="edgeStyle=orthogonalEdgeStyle;rounded=0;orthogonalLoop=1;jettySize=auto;html=1;entryX=1;entryY=0.5;entryDx=0;entryDy=0;" edge="1" parent="1" source="ZxOYCtA8LWhduBdTKurD-19" target="ZxOYCtA8LWhduBdTKurD-18">
          <mxGeometry relative="1" as="geometry">
            <Array as="points">
              <mxPoint x="630" y="447" />
              <mxPoint x="630" y="430" />
            </Array>
          </mxGeometry>
        </mxCell>
        <mxCell id="ZxOYCtA8LWhduBdTKurD-35" style="edgeStyle=orthogonalEdgeStyle;rounded=0;orthogonalLoop=1;jettySize=auto;html=1;entryX=1;entryY=0.5;entryDx=0;entryDy=0;" edge="1" parent="1" source="ZxOYCtA8LWhduBdTKurD-19" target="ZxOYCtA8LWhduBdTKurD-7">
          <mxGeometry relative="1" as="geometry">
            <Array as="points">
              <mxPoint x="630" y="447" />
              <mxPoint x="630" y="550" />
            </Array>
          </mxGeometry>
        </mxCell>
        <mxCell id="ZxOYCtA8LWhduBdTKurD-19" value="Admin" style="shape=umlActor;verticalLabelPosition=bottom;verticalAlign=top;html=1;outlineConnect=0;" vertex="1" parent="1">
          <mxGeometry x="730" y="392" width="70" height="110" as="geometry" />
        </mxCell>
        <mxCell id="ZxOYCtA8LWhduBdTKurD-23" style="edgeStyle=orthogonalEdgeStyle;rounded=0;orthogonalLoop=1;jettySize=auto;html=1;entryX=0;entryY=0.5;entryDx=0;entryDy=0;" edge="1" parent="1" source="ZxOYCtA8LWhduBdTKurD-1" target="ZxOYCtA8LWhduBdTKurD-5">
          <mxGeometry relative="1" as="geometry">
            <Array as="points">
              <mxPoint x="180" y="447" />
              <mxPoint x="180" y="260" />
            </Array>
          </mxGeometry>
        </mxCell>
        <mxCell id="ZxOYCtA8LWhduBdTKurD-37" value="&lt;h1 style=&quot;margin-top: 0px;&quot;&gt;Movie Ticketing Booking System&lt;/h1&gt;" style="text;html=1;whiteSpace=wrap;overflow=hidden;rounded=0;" vertex="1" parent="1">
          <mxGeometry x="219" y="160" width="390" height="120" as="geometry" />
        </mxCell>
      </root>
    </mxGraphModel>
  </diagram>
</mxfile>
